<svg width="18" height="19" viewBox="0 0 18 19" fill="none" xmlns="http://www.w3.org/2000/svg">
<path d="M10.5 2.75V4.25H13.1925L5.82 11.6225L6.8775 12.68L14.25 5.3075V8H15.75V2.75M14.25 14.75H3.75V4.25H9V2.75H3.75C3.35218 2.75 2.97064 2.90804 2.68934 3.18934C2.40804 3.47064 2.25 3.85218 2.25 4.25V14.75C2.25 15.1478 2.40804 15.5294 2.68934 15.8107C2.97064 16.092 3.35218 16.25 3.75 16.25H14.25C14.6478 16.25 15.0294 16.092 15.3107 15.8107C15.592 15.5294 15.75 15.1478 15.75 14.75V9.5H14.25V14.75Z" fill="white"/>
</svg>
