<svg width="48" height="48" viewBox="0 0 48 48" fill="none" xmlns="http://www.w3.org/2000/svg">
<path d="M11.6481 7.26402L24.0001 19.616L36.2881 7.32802C36.5595 7.03912 36.8865 6.80801 37.2494 6.64854C37.6123 6.48908 38.0037 6.40455 38.4001 6.40002C39.2488 6.40002 40.0627 6.73717 40.6628 7.33728C41.2629 7.9374 41.6001 8.75133 41.6001 9.60002C41.6075 9.99235 41.5347 10.3821 41.3862 10.7452C41.2376 11.1084 41.0164 11.4374 40.7361 11.712L28.2881 24L40.7361 36.448C41.2635 36.964 41.5727 37.6627 41.6001 38.4C41.6001 39.2487 41.2629 40.0626 40.6628 40.6628C40.0627 41.2629 39.2488 41.6 38.4001 41.6C37.9922 41.6169 37.5853 41.5489 37.2052 41.4001C36.8251 41.2514 36.4801 41.0252 36.1921 40.736L24.0001 28.384L11.6801 40.704C11.4097 40.9833 11.0867 41.2063 10.7297 41.36C10.3727 41.5138 9.98874 41.5954 9.60006 41.6C8.75136 41.6 7.93743 41.2629 7.33732 40.6628C6.7372 40.0626 6.40006 39.2487 6.40006 38.4C6.3926 38.0077 6.46539 37.618 6.61396 37.2548C6.76254 36.8916 6.98376 36.5626 7.26406 36.288L19.7121 24L7.26406 11.552C6.73665 11.0361 6.42738 10.3373 6.40006 9.60002C6.40006 8.75133 6.7372 7.9374 7.33732 7.33728C7.93743 6.73717 8.75136 6.40002 9.60006 6.40002C10.3681 6.40962 11.1041 6.72002 11.6481 7.26402Z" fill="white"/>
</svg>
