<svg width="18" height="17" viewBox="0 0 18 17" fill="none" xmlns="http://www.w3.org/2000/svg">
<path d="M9.00002 11.8333L5.86668 13.7249L6.70002 10.1583L3.93335 7.75825L7.58335 7.44159L9.00002 4.08325L10.425 7.44992L14.075 7.76659L11.3083 10.1666L12.1417 13.7333L9.00002 11.8333Z" fill="#EBFF00"/>
<path d="M17.3333 6.70008L11.3416 6.18341L8.99996 0.666748L6.65829 6.19175L0.666626 6.70008L5.21663 10.6417L3.84996 16.5001L8.99996 13.3917L14.15 16.5001L12.7916 10.6417L17.3333 6.70008ZM8.99996 11.8334L5.86663 13.7251L6.69996 10.1584L3.93329 7.75841L7.58329 7.44175L8.99996 4.08341L10.425 7.45008L14.075 7.76675L11.3083 10.1667L12.1416 13.7334L8.99996 11.8334Z" fill="#EBFF00"/>
</svg>
